inDegrees=no
num_controls=7
num_derivatives=13
num_iterations=295
num_multipliers=7
num_parameters=0
num_slacks=7
num_states=26
objective=0.454676
objective_accelerations=0.000000
objective_balance=0.003375
objective_effort=0.035872
objective_height=0.316744
objective_ligament=0.098686
solver_duration=4329.174259
status=Solve_Succeeded
success=true
DataType=double
version=3
OpenSimVersion=4.5
endheader
time	/jointset/ground_pelvis/pelvis_tilt/value	/jointset/ground_pelvis/pelvis_tx/value	/jointset/ground_pelvis/pelvis_ty/value	/jointset/hip_l/hip_flexion_l/value	/jointset/hip_l/hip_adduction_l/value	/jointset/hip_l/hip_rotation_l/value	/jointset/back/lumbar_extension/value	/jointset/patellofemoral_l/patellar_flexion_l/value	/jointset/knee_l/knee_flexion_l/value	/jointset/knee_l/knee_adduction_l/value	/jointset/knee_l/knee_rotation_l/value	/jointset/ankle_l/ankle_angle_l/value	/jointset/subtalar_l/subtalar_angle_l/value	/jointset/ground_pelvis/pelvis_tilt/speed	/jointset/ground_pelvis/pelvis_tx/speed	/jointset/ground_pelvis/pelvis_ty/speed	/jointset/hip_l/hip_flexion_l/speed	/jointset/hip_l/hip_adduction_l/speed	/jointset/hip_l/hip_rotation_l/speed	/jointset/back/lumbar_extension/speed	/jointset/patellofemoral_l/patellar_flexion_l/speed	/jointset/knee_l/knee_flexion_l/speed	/jointset/knee_l/knee_adduction_l/speed	/jointset/knee_l/knee_rotation_l/speed	/jointset/ankle_l/ankle_angle_l/speed	/jointset/subtalar_l/subtalar_angle_l/speed	/forceset/tau_hip_flexion_l	/forceset/tau_hip_adduction_l	/forceset/tau_hip_rotation_l	/forceset/tau_knee_flexion_l	/forceset/tau_ankle_angle_l	/forceset/tau_subtalar_angle_l	/forceset/tau_lumbar_extension	lambda_cid13_p0	lambda_cid13_p1	lambda_cid13_p2	lambda_cid13_p3	lambda_cid13_p4	lambda_cid13_p5	lambda_cid14_p0	/jointset/ground_pelvis/pelvis_tilt/accel	/jointset/ground_pelvis/pelvis_tx/accel	/jointset/ground_pelvis/pelvis_ty/accel	/jointset/hip_l/hip_flexion_l/accel	/jointset/hip_l/hip_adduction_l/accel	/jointset/hip_l/hip_rotation_l/accel	/jointset/back/lumbar_extension/accel	/jointset/patellofemoral_l/patellar_flexion_l/accel	/jointset/knee_l/knee_flexion_l/accel	/jointset/knee_l/knee_adduction_l/accel	/jointset/knee_l/knee_rotation_l/accel	/jointset/ankle_l/ankle_angle_l/accel	/jointset/subtalar_l/subtalar_angle_l/accel	gamma_cid13_p0	gamma_cid13_p1	gamma_cid13_p2	gamma_cid13_p3	gamma_cid13_p4	gamma_cid13_p5	gamma_cid14_p0
0.5	-0.1685430377576822	-0.07678586818579065	0.834629923567037	0.8902146504699474	-0.2996119681907298	-0.1843803657743864	-0.9596585700086049	0.6528633307248292	0.6528633307245636	-0.07627633836824077	-0.1741924982917206	-0.01735903415803112	-0.01081434095392892	-0.5334457110549264	0.004816565132891531	-0.08955697710953177	0.6933190209181697	-0.01462250171677714	0.05863135372649238	-0.0008607469777826549	0.1538462353729827	0.1538462353729934	-0.003790127343807347	0.004923163910614921	-0.002249516791666044	-0.01645177537086964	-0.383084713052224	0.03585684590792614	-0.005120656770752479	-0.103552083553307	0.07510164441325534	0.08308685246483495	0.4136310713241947	-21.76684905453956	-32.81405752931472	5.394709120584464	-1.668979963631176	-744.4206436230562	-90.03514250462891	-19.54257864132746	2.057204383740645	0.3629646511810743	0.6810925527052991	-4.073262214358127	0.5957203442571989	-1.099870642287642	-0.5230770727131518	-2.003699900926422	-2.003699900926267	0.9837878759564013	-0.008919256529124838	0.1648944921305887	0.6781580306957153	-1.786442281595395e-08	-2.214513747246812e-08	8.699409061486425e-08	-1.086777137902409e-08	9.579648164793009e-08	4.533786997429964e-08	-2.530242092485061e-08
0.51	-0.1737794016383439	-0.07672012247569629	0.8337669710754505	0.8969513835339971	-0.2997343359797668	-0.1838443680617082	-0.9596876820349004	0.6543049802434007	0.6543049802431035	-0.07627748073608195	-0.1741454413230637	-0.01737509015146366	-0.01095167467358638	-0.5142168436125805	0.008280398047523738	-0.083161271883143	0.6546125683423268	-0.0104661459386183	0.04905247934342594	-0.004491204267415481	0.1347788242119443	0.1347788242119548	0.002252016033671678	0.004314187439215877	-0.001148148514356783	-0.01171199354701916	-0.3859275725809602	0.03704841729050636	-0.004978726376345995	-0.09864280601677648	0.06873677374007438	0.08309995075972618	0.4144422452664295	-23.67816638043537	-32.52202130093058	5.39033699189797	-0.1947574229362515	-742.2090418579471	-88.88661024985936	-19.49667489402599	1.79725515790473	0.3302661092823924	0.5996668547766283	-3.681594388352829	0.2333219159609645	-0.8142712458750054	-0.2124619547586366	-1.813981550111279	-1.813981550111378	0.2179840000940818	-0.1129697604404409	0.05478334619155081	0.2673213326382526	-2.753767856181765e-08	1.5075123220639e-08	7.115668084158714e-08	3.516152760176142e-09	9.435895811625992e-08	4.263687370341108e-08	-2.188969760986903e-08
0.52	-0.1788351713978991	-0.07662130373692001	0.832964147105562	0.9033186005504564	-0.2998335944667453	-0.1833896341747761	-0.95973898501362	0.6555648116850732	0.6555648116847536	-0.07625749038386058	-0.1741096907027189	-0.01738572739198203	-0.01106252396012353	-0.4973268868332996	0.0114311708692725	-0.07753127276992175	0.6194158114002662	-0.01000064130583155	0.0423785885780061	-0.005298937463853562	0.1174826199941584	0.1174826199941681	0.0004364166691685869	0.002661894248010808	-0.001165766210626307	-0.01115488874682641	-0.3887704321096994	0.03823998867308648	-0.004836795981949115	-0.09373352848025093	0.0623719030668918	0.08311304905461707	0.4152534192086627	-25.59828460099029	-32.22922062362522	5.386729838652847	1.278092342899751	-740.1460136424573	-87.74819456826718	-19.45659124143636	1.589422251127602	0.3003526326045465	0.5279513300718266	-3.371323087601735	-0.1424498848172372	-0.5188739187583185	0.04146774592592344	-1.649458512275822	-1.6494585122758	-0.5877606724400244	-0.2175826004903592	-0.05890270258489932	-0.1583773740357608	-3.616286528143865e-09	4.378620187888237e-08	-1.884544161365806e-08	7.357305931943572e-09	8.348310191844537e-08	6.834450511555296e-09	2.503659245011408e-09
0.53	-0.1837324939835711	-0.07649272478594886	0.832214313061391	0.9093523075705885	-0.2999357997689677	-0.1829913434444295	-0.9597884268669138	0.6566602012479738	0.656660201247831	-0.07627227800112124	-0.1740899868218061	-0.0173991682099342	-0.0111765806761439	-0.4824227249654802	0.01421440081306244	-0.07251432130553549	0.5880277558783604	-0.009967065021883756	0.0373082639505343	-0.004515075019711166	0.1018661485043997	0.1018661485044065	-0.00241156789342809	0.00165408496630964	-0.001409906940516617	-0.01113590525123875	-0.3881121663037571	0.03866976005906604	-0.00482341160512366	-0.09212275588672593	0.05995026546901955	0.0834712229821873	0.4128534265303977	-26.18889771681813	-32.28955857753007	5.405710110649539	1.86221389732449	-737.2500406607312	-87.75365795825078	-19.42203558948665	1.39815142300007	0.2567772738995578	0.4767648226255805	-2.91721846809802	0.1472616908986751	-0.4967879137708593	0.107999220383237	-1.477116142484999	-1.477116142485488	0.01404725830410397	0.01388470348186445	0.00970345718848039	0.1601171053251186	-3.934972366662599e-10	3.905263377171432e-08	-3.499151858133721e-08	8.015489314886e-09	6.738257640774559e-08	-3.18078937806408e-09	6.081249986496262e-09
